<?xml version="1.0" encoding="UTF-8"?>
<svg width="1122.5" height="793.7" version="1.1" viewBox="0 0 297 210" xmlns="http://www.w3.org/2000/svg" xmlns:cc="http://creativecommons.org/ns#" xmlns:dc="http://purl.org/dc/elements/1.1/" xmlns:rdf="http://www.w3.org/1999/02/22-rdf-syntax-ns#">
 <metadata>
  <rdf:RDF>
   <cc:Work rdf:about="">
    <dc:format>image/svg+xml</dc:format>
    <dc:type rdf:resource="http://purl.org/dc/dcmitype/StillImage"/>
    <dc:title/>
   </cc:Work>
  </rdf:RDF>
 </metadata>
 <g transform="translate(0,-87)">
  <rect y="87" width="297" height="210" fill="#fff"/>
  <path d="m85.923 283.35c-0.14668-0.0348-1.1749-0.0899-2.2849-0.12254-1.11-0.0326-2.0381-0.0915-2.0623-0.13067-0.02424-0.0392-0.43905-0.0713-0.92181-0.0713-0.62458 0-0.88735-0.0288-0.91103-0.0998-0.02175-0.0654-0.26807-0.10986-0.7141-0.12893-0.37446-0.016-0.7154-0.0621-0.75764-0.10228-0.04226-0.0403-0.39479-0.0731-0.78344-0.0731s-0.72912-0.0363-0.75661-0.0808c-0.02747-0.0444-0.36916-0.0808-0.7593-0.0808s-0.72996-0.0206-0.75516-0.0458c-0.02523-0.0252-0.34131-0.0525-0.70246-0.0606-0.65182-0.0147-0.65896-0.0172-0.97421-0.33819-0.17467-0.17784-0.31937-0.36884-0.32155-0.42442-0.0025-0.0713-0.17854-0.10105-0.59681-0.10105-0.32606 0-0.61784-0.025-0.64838-0.0555-0.03058-0.0306-0.11847-0.061-0.19537-0.0677-0.07691-7e-3 -0.45801-0.0396-0.84689-0.0729-0.38889-0.0334-0.72755-0.0939-0.75257-0.13439-0.02504-0.0404-0.2049-0.0736-0.39974-0.0736-0.19483 0-0.37376-0.0315-0.39761-0.0702-0.02386-0.0386-0.42742-0.0873-0.89682-0.10813-0.71065-0.0316-0.89303-0.0672-1.0899-0.21278-0.13006-0.0961-0.27432-0.17483-0.32058-0.17483-0.04624 0-0.08411-0.0322-0.08411-0.0713 0-0.0393-0.15462-0.0702-0.34358-0.0687-0.65357 5e-3 -1.92-0.11789-1.9651-0.1909-0.02492-0.0404-0.13196-0.0733-0.23787-0.0733s-0.21208-0.0315-0.23594-0.0702c-0.02386-0.0386-0.2246-0.0942-0.44608-0.12361-0.22149-0.0293-0.42454-0.0887-0.45122-0.13192-0.02666-0.0432-0.13517-0.0785-0.24108-0.0785s-0.21505-0.0363-0.24253-0.0808c-0.02747-0.0444-0.15089-0.0808-0.27425-0.0808-0.12335 0-0.2457-0.0215-0.27188-0.0476-0.02617-0.0262-0.23307-0.0576-0.45976-0.0698-0.24076-0.013-0.47294-0.0772-0.55834-0.15449-0.0804-0.0728-0.22517-0.1323-0.32171-0.1323s-0.17553-0.0363-0.17553-0.0808c0-0.0514-0.66792-0.0814-1.8392-0.0823-1.2041-6.2e-4 -2.1043-0.0423-2.6072-0.11981-0.4224-0.0651-1.1751-0.11902-1.6727-0.11982-0.51428-6.2e-4 -0.92627-0.0363-0.95467-0.0823-0.02747-0.0445-0.13877-0.0808-0.2473-0.0808s-0.19733-0.0403-0.19733-0.0895-0.05457-0.0686-0.12126-0.0429c-0.0667 0.0256-0.12126 0.0113-0.12126-0.0318s-0.07275-0.0783-0.16168-0.0783-0.16169-0.0363-0.16169-0.0808-0.05152-0.0808-0.11452-0.0808c-0.06299 0-0.1297-0.0455-0.14825-0.10105-0.02554-0.0766-0.44652-0.10105-1.7383-0.10105-1.6565 0-1.7101-5e-3 -1.8982-0.1819-0.10649-0.10003-0.27313-0.18189-0.37031-0.18189s-0.17668-0.0355-0.17668-0.0788c0-0.0447-0.10646-0.0576-0.24602-0.0296-0.18728 0.0374-0.29137 6e-3 -0.43593-0.12921-0.14392-0.13521-0.20179-0.1525-0.23903-0.0714-0.03847 0.0838-0.05935 0.085-0.09629 5e-3 -0.02592-0.0555-0.10256-0.10105-0.17026-0.10105-0.06771 0-0.19464-0.0909-0.28208-0.2021-0.08744-0.11116-0.2291-0.20211-0.3148-0.20211-0.10272 0-0.15582-0.0559-0.15582-0.16422 0-0.0903-0.05457-0.18517-0.12126-0.21076-0.0667-0.0256-0.12126-0.10737-0.12126-0.18172 0-0.0743-0.07373-0.18833-0.16383-0.25327-0.0913-0.0658-0.18536-0.25267-0.21244-0.42206-0.02673-0.16719-0.08033-0.30398-0.11912-0.30398-0.03878 0-0.0705-0.17974-0.0705-0.39944 0-0.21969-0.03635-0.42192-0.08084-0.4494-0.04449-0.0274-0.08084-0.35437-0.08084-0.72642v-0.67648l-0.25495-0.12719c-0.14022-0.0699-0.32211-0.12718-0.40421-0.12718s-0.14927-0.0314-0.14927-0.0698c0-0.0902-0.89216-0.19009-1.824-0.20413-0.86123-0.0129-0.85553-0.01-1.8151-0.95586-0.3786-0.37322-0.75232-0.70311-0.83046-0.73311-0.07816-0.03-0.16642-0.119-0.19614-0.19782-0.02971-0.0788-0.20628-0.29627-0.39232-0.48322-0.18605-0.18694-0.36138-0.38703-0.38964-0.44463-0.02828-0.0576-0.12107-0.21387-0.20626-0.34725-0.08519-0.13339-0.15754-0.32438-0.1608-0.42442-0.0031-0.10004-0.04226-0.18189-0.08675-0.18189-0.04444 0-0.08084-0.12005-0.08084-0.26678 0-0.14672-0.03915-0.30592-0.08698-0.35376-0.13623-0.13623-0.18784-4.376-0.08347-6.8574 0.09789-2.3273 0.23442-3.4329 0.54382-4.4037 0.22392-0.70254 0.24155-1.191 0.0614-1.6999-0.15198-0.42921-0.10173-1.8657 0.09492-2.7136 0.06455-0.27835 0.09763-0.55754 0.0735-0.62042-0.02412-0.0628-0.05879-0.98458-0.077-2.0482-0.04276-2.4964-0.11698-3.3556-0.30612-3.5446-0.17551-0.17533-0.3615-0.59914-0.49946-1.138-0.22781-0.88989-0.44183-6.5438-0.46514-12.288-0.01877-4.6317 0.17698-6.7462 0.74101-8.0034 0.26166-0.58321 0.31016-0.70396 0.37333-0.92968 0.03114-0.11116 0.1639-0.43857 0.2951-0.72758 0.33854-0.74577 0.43068-0.97224 0.52624-1.2935 0.0463-0.15563 0.18134-0.61036 0.3001-1.0105 0.11876-0.40016 0.30977-0.94585 0.42447-1.2126 0.11469-0.26678 0.23608-0.55781 0.26975-0.64674 0.17872-0.47207 0.521-1.1249 0.7035-1.3418 0.11397-0.13544 0.30183-0.38528 0.41746-0.55519 0.11564-0.1699 0.38866-0.50367 0.60671-0.74172 0.21805-0.23804 0.4424-0.54206 0.49856-0.67561 0.05618-0.13353 0.20537-0.3883 0.33158-0.56616 0.12622-0.17785 0.28276-0.42688 0.34788-0.55341 0.18376-0.3571 0.99763-1.2081 1.8103-1.8929 0.40601-0.34212 0.78574-0.68654 0.84384-0.76536 0.05811-0.0788 0.15099-0.1433 0.20642-0.1433s0.1716-0.12363 0.25816-0.27471c0.20345-0.35519 1.0452-1.3659 1.8146-2.1789 0.68861-0.72758 2.1735-2.0736 2.2875-2.0736 0.18953 0 0.92649-0.64772 1.3543-1.1903 0.25914-0.32865 0.57344-0.67574 0.69846-0.7713 0.12501-0.0956 0.33678-0.28446 0.47059-0.41977 0.55387-0.56002 1.5804-1.2681 2.0665-1.4254 0.2997-0.097 1.0666-0.4317 1.3281-0.5796 0.08893-0.0503 0.34358-0.18191 0.5659-0.29246s0.54972-0.31555 0.72758-0.45555c0.40168-0.31618 0.83103-0.51613 1.2688-0.59085 0.35987-0.0614 0.61323-0.35446 0.62513-0.723 0.0056-0.1645-0.12439-0.47955-0.24083-0.585-0.02455-0.0223-0.10573-0.17184-0.1804-0.33245-0.07468-0.16062-0.19311-0.33961-0.2632-0.39777-0.07008-0.0582-0.17483-0.21923-0.23279-0.35793-0.05792-0.13869-0.15588-0.3067-0.21764-0.37335-0.15804-0.17057-0.31432-0.45792-0.31473-0.57868-1.62e-4 -0.0562-0.09113-0.28111-0.2021-0.49985-0.11097-0.21873-0.20177-0.42692-0.20177-0.46263 0-0.0952-0.42652-0.99194-0.49482-1.0403-0.03207-0.0226-0.08336-0.14125-0.11405-0.2635-0.0307-0.12224-0.08813-0.24226-0.12767-0.2667-0.03952-0.0244-0.07189-0.14414-0.07189-0.26601s-0.03318-0.25615-0.07373-0.29839c-0.0999-0.10406-0.1374-0.69121-0.19598-3.068-0.05276-2.1412 0.03828-4.3134 0.20339-4.8505 0.05469-0.17785 0.1829-0.47589 0.28497-0.66229 0.10207-0.18642 0.18557-0.41164 0.18557-0.5005 0-0.0889 0.03635-0.18405 0.08084-0.21152 0.04449-0.0274 0.08084-0.1014 0.08084-0.16425 0-0.16121 0.40336-1.0162 0.57085-1.2101 0.07684-0.0889 0.2072-0.28926 0.2897-0.44517 0.32954-0.62285 1.2955-1.9321 1.8386-2.4921 0.31623-0.32605 0.91066-0.82839 1.3209-1.1163 0.41028-0.28794 0.76494-0.55423 0.78813-0.59177 0.02318-0.0375 0.28777-0.19378 0.58794-0.34724 0.5987-0.30607 1.1474-0.60934 1.2733-0.70383 0.04449-0.0334 0.34005-0.15824 0.65686-0.27754s0.82183-0.34279 1.1223-0.49665c0.30044-0.15385 0.57683-0.27974 0.6142-0.27974 0.03735 0 0.27812-0.0953 0.53501-0.21181 0.74037-0.33577 0.9262-0.40591 1.3563-0.51195 0.22232-0.0548 0.47696-0.13005 0.56589-0.16719 0.77048-0.32187 3.2946-0.56778 5.3305-0.51932 1.477 0.0352 2.1043 0.14043 3.1176 0.52321 0.33347 0.12598 0.69726 0.25493 0.80842 0.28655 0.11116 0.0316 0.61917 0.33429 1.1289 0.67258 0.50974 0.3383 0.99043 0.65147 1.0682 0.69594 0.07775 0.0444 0.55405 0.36038 1.0584 0.70203 0.89164 0.60402 1.2735 0.99232 1.7213 1.7504 0.08309 0.14067 0.18871 0.25697 0.2347 0.25845 0.14351 5e-3 0.44742 0.29988 0.44742 0.43469 0 0.0707 0.02729 0.12949 0.06066 0.13068 0.03337 2e-3 0.21894 0.14723 0.41243 0.32454 0.19349 0.17732 0.41492 0.36733 0.49206 0.42226 0.23253 0.1656 0.71185 0.88653 0.84644 1.2731 0.06946 0.19955 0.12684 0.56695 0.12748 0.81645l0.0013 0.45364 0.5659 0.55359c0.31124 0.30446 0.56589 0.59227 0.56589 0.63955 0 0.0473 0.1277 0.15474 0.28376 0.23878 0.34181 0.18408 0.78744 0.59693 1.2055 1.1168 0.2123 0.26401 0.36889 0.384 0.50115 0.384 0.1058 0 0.19237 0.0363 0.19237 0.0808 0 0.0444 0.05521 0.0808 0.12269 0.0808s0.24028 0.12273 0.384 0.27273c0.3978 0.41517 0.98556 1.1022 1.0158 1.1874 0.01479 0.0417 0.06387 0.0758 0.10904 0.0758 0.04515 0 0.21002 0.0607 0.36637 0.13489 0.22473 0.10664 0.31595 0.1151 0.43554 0.0404 0.19295-0.1205 2.8213-0.1332 2.8213-0.0136 0 0.1175 0.38404 0.0993 0.42734-0.0202 0.02926-0.0808 0.07079-0.0808 0.20774 0 0.11521 0.068 0.54514 0.10105 1.3152 0.10105h1.1441l0.35081-0.32336c0.19295-0.17786 0.41601-0.32338 0.49569-0.32338 0.0797 0 0.35802-0.15943 0.61854-0.35428 0.26051-0.19486 0.61632-0.40137 0.79066-0.45891 0.17436-0.0576 0.33546-0.13446 0.358-0.17093 0.0483-0.0781 0.80643-0.43179 1.2778-0.59608 0.38975-0.13583 1.432-0.15564 1.5581-0.0297 0.0484 0.0483 0.38413 0.10817 0.74623 0.13298 0.36209 0.0248 0.67758 0.0762 0.70108 0.11425 0.0235 0.038 0.1679 0.0691 0.32089 0.0691 0.153 0 0.27818 0.0335 0.27818 0.0744 0 0.041 0.10536 0.0976 0.23415 0.12586 0.12877 0.0283 0.29812 0.12211 0.37631 0.20853 0.0782 0.0864 0.17571 0.1571 0.21671 0.1571 0.0866 0 0.54714 0.4454 0.54714 0.52916 0 0.0311 0.22327 0.29523 0.49616 0.58694 0.75804 0.81035 0.84482 1.0635 1.0584 3.0877 0.0972 0.92129 0.12498 2.3017 0.0667 3.3145-0.0167 0.28901-2e-3 0.74375 0.0315 1.0105 0.0449 0.35198 0.0245 0.65141-0.074 1.0914-0.0747 0.33347-0.16633 0.77002-0.20365 0.9701-0.0935 0.50112-0.14118 0.62548-0.71615 1.8659-0.17873 0.3856-0.79726 1.052-1.145 1.2336-0.11068 0.0578-0.36493 0.19538-0.56502 0.30575-0.72128 0.39786-1.4813 0.47243-2.8295 0.27762-1.331-0.19233-2.4292-0.56634-3.3954-1.1563-0.58059-0.35451-0.58014-0.35427-1.3334-0.71846l-0.64622-0.31245-1.1313 0.0183c-0.6222 0.0101-1.2283 0.0585-1.3469 0.10765-0.14794 0.0613-0.82055 0.0749-2.1434 0.0432-2.3813-0.0569-2.3847-0.0569-4.3126 0.0242-1.674 0.0705-2.274 0.19681-3.016 0.63525-0.16928 0.10003-0.33864 0.18187-0.37636 0.18187s-0.20844 0.0698-0.37938 0.15508c-0.17094 0.0853-0.51014 0.2161-0.75378 0.29067-0.24364 0.0746-0.53591 0.20174-0.64947 0.2826-0.11357 0.0809-0.35077 0.17308-0.52712 0.20494-0.17636 0.0318-0.35702 0.0847-0.40148 0.11751-0.04449 0.0328-0.4339 0.10706-0.86541 0.16504-0.60954 0.0819-0.8551 0.0843-1.1008 0.0107-0.3924-0.11756-0.80018-0.12244-0.83766-0.01-0.01553 0.0466-0.40963 0.12182-0.87579 0.16719-1.527 0.14863-1.6551 0.16642-1.7328 0.24062-0.04226 0.0404-0.16047 0.0734-0.26274 0.0734s-0.18593 0.0318-0.18593 0.0705c0 0.0388-0.14552 0.0938-0.32337 0.12222-0.17786 0.0285-0.32337 0.0877-0.32337 0.13159 0 0.044-0.05457 0.0799-0.12126 0.0799-0.17258 0-0.44463 0.29454-0.44463 0.48139 0 0.16255 0.16879 0.21806 0.80776 0.26561 0.20977 0.0156 0.28957 0.0625 0.31062 0.18268 0.0156 0.0889 0.16366 0.30721 0.32905 0.48506 0.16539 0.17786 0.40567 0.46889 0.53394 0.64674 0.12828 0.17785 0.25335 0.34156 0.27793 0.36379 0.10778 0.0975 0.2468 0.41562 0.2468 0.5648 0 0.0895 0.03635 0.16278 0.08084 0.16278 0.04444 0 0.08084 0.0781 0.08084 0.17363 0 0.11351 0.2883 0.45643 0.83258 0.99032 0.88621 0.86929 1.2366 1.3252 1.4631 1.9034 0.07738 0.19752 0.20527 0.45217 0.2842 0.5659 0.17259 0.24866 0.61175 1.0498 1.1769 2.147 0.22902 0.44463 0.58699 1.1226 0.79549 1.5065 0.20851 0.38396 0.3791 0.75574 0.3791 0.82617 0 0.0705 0.06526 0.24742 0.14502 0.39327 0.07976 0.14586 0.2157 0.48347 0.30209 0.75025s0.30494 0.72151 0.48567 1.0105c0.49105 0.78524 0.76491 1.6058 0.76491 2.2918 0 0.18905 0.07587 0.6693 0.16859 1.0672 0.09273 0.39793 0.19845 0.88719 0.23494 1.0873 0.03648 0.20009 0.12391 0.56701 0.19426 0.81539s0.16292 0.72131 0.2057 1.051c0.04275 0.32964 0.11577 0.78125 0.16218 1.0036 0.29761 1.4257 0.34647 2.0313 0.41412 5.1335 0.03828 1.7563 0.10297 3.5025 0.14369 3.8804 0.04071 0.37794 0.11515 1.1601 0.16536 1.7381 0.05022 0.57803 0.12548 1.3923 0.16725 1.8095 0.11324 1.131 0.0179 6.722-0.1332 7.8107-0.20493 1.4766-0.26592 2.0503-0.34383 3.2337-0.07526 1.1432-0.26196 2.639-0.40361 3.2337-0.36495 1.5321-0.43242 1.7792-0.61805 2.2636-0.03406 0.0889-0.11116 0.36177-0.17129 0.60632-0.0601 0.24454-0.14237 0.57196-0.18276 0.72758-0.0404 0.15562-0.10713 0.41366-0.14829 0.57344-0.06749 0.26193-0.6144 1.4221-0.9105 1.9314-0.44288 0.76186-1.2699 1.6659-1.8966 2.0733-1.4634 0.9512-1.6632 1.2042-1.6832 2.1317-0.01026 0.47658 0.01491 0.56395 0.2707 0.93883 0.15512 0.22733 0.32204 0.48147 0.37095 0.56475 0.07352 0.12515 0.2066 0.15583 0.768 0.17702 0.46336 0.0175 0.7818 0.0753 1.0024 0.18226 0.5155 0.2497 1.0088 0.40073 1.309 0.40073 0.15295 0 0.34306 0.0348 0.42245 0.0772 0.07939 0.0425 0.75039 0.099 1.4911 0.12566 0.74072 0.0266 1.5919 0.10216 1.8916 0.16786 0.29966 0.0657 0.94501 0.13444 1.4341 0.15276 0.80325 0.0301 1.0092 0.0728 2.1289 0.44204 0.68181 0.22481 1.3457 0.40874 1.4754 0.40874 0.12963 0 0.23571 0.0363 0.23571 0.0808 0 0.0444 0.20008 0.0808 0.44463 0.0808s0.44463 0.03 0.44463 0.0668 0.10484 0.0514 0.23296 0.0326 0.25759 6e-3 0.28772 0.0544c0.03012 0.0487 0.16176 0.0886 0.29252 0.0886 0.13078 0 0.23776 0.0363 0.23776 0.0808 0 0.0444 0.07275 0.0808 0.16169 0.0808 0.08892 0 0.16168 0.0414 0.16168 0.0921 0 0.066 0.1432 0.0736 0.50527 0.027 0.61381-0.0789 1.2456-0.0746 3.6581 0.0254 1.7213 0.0713 1.8864 0.0913 2.2232 0.26938 0.20009 0.10578 0.38281 0.21748 0.40604 0.2482 0.0233 0.0307 0.22332 0.0786 0.44464 0.10625 0.22131 0.0277 0.67523 0.10755 1.0087 0.17743 0.33347 0.0698 0.7068 0.1445 0.82962 0.16581 0.12282 0.0213 0.24319 0.071 0.2675 0.11028 0.0243 0.0393 0.11359 0.0715 0.19838 0.0715 0.17353 0 0.75153 0.25045 0.79292 0.34358 0.0148 0.0333 0.0559 0.0606 0.0911 0.0606 0.0353 0 0.45342 0.21733 0.92918 0.48297s0.8895 0.47629 0.91942 0.46809c0.12572-0.0344 0.72199 0.31872 0.98409 0.5828 0.29463 0.29686 0.72758 1.0434 0.72758 1.2546 0 0.067 0.0273 0.12213 0.0606 0.12248 0.15074 2e-3 0.26274 0.49103 0.26274 1.1484 0 0.42116-0.0413 0.78539-0.10106 0.89066-0.22114 0.38976-0.82867 0.95252-1.2612 1.1683-0.25116 0.1253-0.46881 0.25516-0.48364 0.28858-0.0149 0.0334-0.16946 0.0835-0.34358 0.11138-0.17412 0.0279-0.31659 0.0824-0.31659 0.12114 0 0.0388-0.12518 0.0705-0.27818 0.0705s-0.30066 0.0363-0.32814 0.0808c-0.0275 0.0445-0.19119 0.0808-0.36379 0.0808-0.17261 0-0.33301 0.0311-0.35646 0.069-0.0234 0.0379-0.325 0.0903-0.67011 0.11644-0.34511 0.0261-0.64033 0.086-0.65603 0.13311-0.0178 0.0532-0.35666 0.0857-0.89492 0.0857-0.4765 0-0.90093 0.0324-0.94316 0.0721-0.0422 0.0396-0.69315 0.0879-1.4464 0.10728-0.9485 0.0244-1.3794 0.0643-1.4013 0.12998-0.0174 0.0521-0.14681 0.0956-0.28762 0.0966-0.14079 6.2e-4 -0.34694 0.0729-0.45811 0.15988-0.11115 0.087-0.24756 0.1589-0.30315 0.1599-0.10959 2e-3 -0.14711 0.56768-0.0377 0.56768 0.0348 0 0.13269 0.11823 0.21737 0.26275 0.0847 0.1445 0.30171 0.41067 0.48228 0.59149 0.34597 0.34645 0.48225 0.52968 0.60646 0.81539 0.0417 0.0957 0.11653 0.1993 0.16648 0.23017 0.0886 0.0547 0.22038 0.33239 0.22594 0.47602 2e-3 0.0395 0.0351 0.094 0.0746 0.12126 0.0395 0.0272 0.13706 0.18976 0.21689 0.36125 0.17211 0.36969 0.11708 0.98221-0.10609 1.1808-0.0768 0.0683-0.16573 0.17878-0.19774 0.24547-0.15682 0.32681-0.30631 0.53152-0.62603 0.85728-0.19181 0.19544-0.38139 0.35535-0.4213 0.35535-0.0399 0-0.18063 0.0909-0.31273 0.20211-0.13211 0.11115-0.30905 0.20211-0.39322 0.20211-0.0842 0-0.27688 0.0696-0.42827 0.15459-0.15139 0.085-0.48038 0.18023-0.73111 0.21156-0.25072 0.0313-0.47571 0.0891-0.49998 0.12835-0.0242 0.0392-0.13182 0.0714-0.239 0.0714-0.10717 0-0.3219 0.0713-0.47715 0.15854-0.19049 0.10699-0.52067 0.17654-1.0155 0.21389-0.40327 0.0304-0.75243 0.0864-0.7759 0.1244-0.02352 0.038-0.74778 0.0691-1.6096 0.0691s-1.5872 0.0328-1.6119 0.0729c-0.02477 0.0401-0.26345 0.0982-0.53039 0.12922-0.26694 0.031-0.50562 0.0891-0.53039 0.12922-0.05466 0.0884-3.6849 0.0823-4.0614-7e-3z" fill="#088550" stroke-width=".080842"/>
  <g transform="matrix(.5365 0 0 .53011 -324.53 33.083)">
   <path d="m597.86 95.842v402.01h567.14c0.1606-133.05 0.059-266.11-0.7143-399.16zm57.04 145.67h172.75v237.78l-16.178 19.283-174.73 0.0922 18.154-19.463v-38.144l-0.20113-29.904s0.20113-20.31 0.20113-85.934zm310.51 30.7 68.392 0.096 47.567 44.084 47.626 44.086-17.465 15.88c-9.5978 8.7253-30.786 28.226-47.116 43.365l-29.695 27.485h-68.537l32.996-30.655 32.996-30.698h-54.998l-54.998-0.0582v-52.183h109.79c-22.642-20.567-46.084-42.047-66.559-61.401z" fill="#085" stroke-width="1.4542"/>
  </g>
  <g transform="matrix(.26458 0 0 .26458 38.176 90.402)" fill="#fff" aria-label="Nootausgang">
   <path d="m109.28 121.05v-64.92h10.92v84h-12.12l-37.8-64.92v64.92h-10.92v-84h12.12z"/>
   <path d="m162.93 141.45q-6.48 0-11.76-2.28t-9-6.24-5.76-9.12-2.04-10.92 2.04-10.92q2.04-5.28 5.76-9.24t9-6.24 11.76-2.28q6.6 0 11.88 2.28t9 6.24q3.84 3.96 5.88 9.24 2.04 5.16 2.04 10.92t-2.04 10.92-5.88 9.12q-3.72 3.96-9 6.24t-11.88 2.28zm0-9.36q4.2 0 7.56-1.56 3.48-1.56 5.88-4.08 2.4-2.64 3.72-6.12t1.32-7.44-1.32-7.44-3.72-6.12-5.88-4.2q-3.36-1.56-7.56-1.56t-7.56 1.56-5.76 4.2q-2.28 2.64-3.6 6.12t-1.32 7.44 1.32 7.44 3.6 6.12q2.4 2.52 5.76 4.08t7.56 1.56z"/>
   <path d="m230.2 141.45q-6.48 0-11.76-2.28t-9-6.24-5.76-9.12-2.04-10.92 2.04-10.92q2.04-5.28 5.76-9.24t9-6.24 11.76-2.28q6.6 0 11.88 2.28t9 6.24q3.84 3.96 5.88 9.24 2.04 5.16 2.04 10.92t-2.04 10.92-5.88 9.12q-3.72 3.96-9 6.24t-11.88 2.28zm0-9.36q4.2 0 7.56-1.56 3.48-1.56 5.88-4.08 2.4-2.64 3.72-6.12t1.32-7.44-1.32-7.44-3.72-6.12-5.88-4.2q-3.36-1.56-7.56-1.56t-7.56 1.56-5.76 4.2q-2.28 2.64-3.6 6.12t-1.32 7.44 1.32 7.44 3.6 6.12q2.4 2.52 5.76 4.08t7.56 1.56z"/>
   <path d="m302.98 140.13q-1.56 0.24-4.2 0.48-2.52 0.24-5.16 0.24-2.52 0-5.52-0.48t-5.64-2.28q-2.52-1.92-4.32-5.76-1.68-3.84-1.68-10.56v-27.36h-10.08v-8.76h10.08v-18.36h10.44v18.36h14.16v8.76h-14.16v25.08q0 3.96 0.59999 6.36 0.72 2.28 1.92 3.6 1.2 1.2 2.76 1.56 1.68 0.36 3.72 0.36 1.68 0 3.72-0.12 2.16-0.12 3.36-0.36z"/>
   <path d="m366.34 85.649v54.48h-10.32v-9.48q-2.64 5.04-7.92 7.92-5.16 2.88-11.16 2.88-6.24 0-11.4-2.28t-8.88-6.24q-3.6-3.96-5.64-9.12t-2.04-10.92 2.04-10.92q2.04-5.28 5.64-9.24 3.72-3.96 8.88-6.24t11.4-2.28q6 0 11.16 2.88 5.28 2.88 7.92 7.92v-9.36zm-28.8 46.44q4.2 0 7.56-1.56 3.48-1.56 5.88-4.08 2.4-2.64 3.72-6.12t1.32-7.44-1.32-7.44-3.72-6.12-5.88-4.2q-3.36-1.56-7.56-1.56t-7.56 1.56-5.76 4.2q-2.28 2.64-3.6 6.12t-1.32 7.44 1.32 7.44 3.6 6.12q2.4 2.52 5.76 4.08t7.56 1.56z"/>
   <path d="m434.22 85.649v54.48h-10.44v-9.72q-2.4 5.04-7.44 8.04-4.92 3-11.76 3-5.76 0-9.96-1.8-4.08-1.92-6.48-5.28-2.28-3.12-3.24-6.96-0.84-3.84-0.84-9.6v-32.16h10.44v28.8q0 3.84 0.72 7.08t2.28 5.64q1.68 2.28 4.2 3.72 2.64 1.32 6.48 1.32 3.96 0 6.84-1.44 3-1.56 4.92-4.08 1.92-2.64 2.88-6t0.96-7.08v-27.96z"/>
   <path d="m475.92 109.77q3.12 0.96 6 2.04 3 1.08 5.28 2.76t3.6 4.2q1.44 2.52 1.44 6.36 0 4.08-1.68 7.2-1.56 3-4.44 5.04t-6.84 3q-3.84 1.08-8.4 1.08t-8.64-1.2-7.2-3.6q-3-2.52-4.92-6.24-1.8-3.72-1.8-8.64h10.2q0 6.24 3.6 8.88 3.72 2.52 9.24 2.52 5.04 0 7.92-1.8 3-1.92 3-6 0-2.28-1.2-3.6-1.2-1.44-3.48-2.52-2.16-1.08-5.4-1.92-3.24-0.96-7.32-2.4-3.12-0.96-5.88-2.04-2.64-1.08-4.68-2.76-1.92-1.68-3.12-4.08-1.08-2.4-1.08-6.12 0-3.84 1.56-6.72 1.56-3 4.32-4.92 2.76-2.04 6.48-3 3.72-1.08 7.92-1.08 4.44 0 8.28 1.32t6.6 3.84q2.88 2.4 4.44 5.76 1.68 3.36 1.68 7.44h-10.08q0-4.8-2.88-7.32-2.76-2.64-8.16-2.64-4.32 0-7.2 1.92t-2.88 5.64q0 2.04 0.96 3.36 1.08 1.32 3.12 2.28t4.92 1.92q2.88 0.84 6.72 2.04z"/>
   <path d="m531.14 93.569q-4.2 0-7.56 1.56t-5.76 4.2q-2.28 2.64-3.6 6.12t-1.32 7.44 1.32 7.44 3.6 6.12q2.4 2.52 5.76 4.08t7.56 1.56 7.56-1.56q3.48-1.56 5.88-4.08 2.4-2.64 3.72-6.12t1.32-7.44-1.32-7.44-3.72-6.12-5.88-4.2q-3.36-1.56-7.56-1.56zm28.8 50.04q0 7.32-2.04 12.48-1.92 5.16-5.76 8.4-3.72 3.36-9.12 4.8-5.28 1.56-12.12 1.56-6.96 0-12.12-2.04-5.04-1.92-8.4-5.28-3.36-3.24-5.16-7.56-1.68-4.32-1.92-8.88h10.56q0.24 2.88 1.32 5.52t3.12 4.56q2.04 2.04 5.16 3.24t7.44 1.2q8.76 0 13.68-4.2 5.04-4.2 5.04-13.8v-12.96q-2.64 5.04-7.92 7.92-5.16 2.88-11.16 2.88-6.24 0-11.4-2.28t-8.88-6.24q-3.6-3.96-5.64-9.12t-2.04-10.92 2.04-10.92q2.04-5.28 5.64-9.24 3.72-3.96 8.88-6.24t11.4-2.28q6 0 11.16 2.88 5.28 2.88 7.92 7.92v-9.36h10.32z"/>
   <path d="m631.42 85.649v54.48h-10.32v-9.48q-2.64 5.04-7.92 7.92-5.16 2.88-11.16 2.88-6.24 0-11.4-2.28t-8.88-6.24q-3.6-3.96-5.64-9.12t-2.04-10.92 2.04-10.92q2.04-5.28 5.64-9.24 3.72-3.96 8.88-6.24t11.4-2.28q6 0 11.16 2.88 5.28 2.88 7.92 7.92v-9.36zm-28.8 46.44q4.2 0 7.56-1.56 3.48-1.56 5.88-4.08 2.4-2.64 3.72-6.12t1.32-7.44-1.32-7.44-3.72-6.12-5.88-4.2q-3.36-1.56-7.56-1.56t-7.56 1.56-5.76 4.2q-2.28 2.64-3.6 6.12t-1.32 7.44 1.32 7.44 3.6 6.12q2.4 2.52 5.76 4.08t7.56 1.56z"/>
   <path d="m650.22 85.649h10.44v9.6q2.4-5.04 7.32-8.04t11.88-3q5.76 0 9.84 1.92 4.08 1.8 6.48 5.28 2.28 3.12 3.24 6.96t0.96 9.6v32.16h-10.44v-28.92q0-3.72-0.72-6.96-0.72001-3.36-2.4-5.64-1.56-2.4-4.2-3.72-2.64-1.44-6.48-1.44-3.96 0-6.84 1.56t-4.8 4.2q-1.92 2.52-2.88 5.88t-0.96 6.96v28.08h-10.44z"/>
   <path d="m742.07 93.569q-4.2 0-7.56 1.56t-5.76 4.2q-2.28 2.64-3.6 6.12t-1.32 7.44 1.32 7.44 3.6 6.12q2.4 2.52 5.76 4.08t7.56 1.56 7.56-1.56q3.48-1.56 5.88-4.08 2.4-2.64 3.72-6.12t1.32-7.44-1.32-7.44-3.72-6.12-5.88-4.2q-3.36-1.56-7.56-1.56zm28.8 50.04q0 7.32-2.04 12.48-1.92 5.16-5.76 8.4-3.72 3.36-9.12 4.8-5.28 1.56-12.12 1.56-6.96 0-12.12-2.04-5.04-1.92-8.4-5.28-3.36-3.24-5.16-7.56-1.68-4.32-1.92-8.88h10.56q0.24 2.88 1.32 5.52t3.12 4.56q2.04 2.04 5.16 3.24t7.44 1.2q8.76 0 13.68-4.2 5.04-4.2 5.04-13.8v-12.96q-2.64 5.04-7.92 7.92-5.16 2.88-11.16 2.88-6.24 0-11.4-2.28t-8.88-6.24q-3.6-3.96-5.64-9.12t-2.04-10.92 2.04-10.92q2.04-5.28 5.64-9.24 3.72-3.96 8.88-6.24t11.4-2.28q6 0 11.16 2.88 5.28 2.88 7.92 7.92v-9.36h10.32z"/>
  </g>
 </g>
</svg>
