<?xml version="1.0" encoding="UTF-8"?>
<svg width="800" height="400" version="1.1" viewBox="0 0 400 200" xmlns="http://www.w3.org/2000/svg" xmlns:cc="http://creativecommons.org/ns#" xmlns:dc="http://purl.org/dc/elements/1.1/" xmlns:rdf="http://www.w3.org/1999/02/22-rdf-syntax-ns#">
 <metadata>
  <rdf:RDF>
   <cc:Work rdf:about="">
    <dc:format>image/svg+xml</dc:format>
    <dc:type rdf:resource="http://purl.org/dc/dcmitype/StillImage"/>
    <dc:title/>
   </cc:Work>
  </rdf:RDF>
 </metadata>
 <g>
  <rect width="400" height="200" fill="#fff"/>
  <path d="m5 5v190h390v-190h-195zm39.224 13.722h118.8v163.51l-5.22 5.35-5.22 5.31-118.44-0.63c3.2123-3.9001 6.1794-6.4104 10.086-10.09zm213.53 21.111 47.03 0.066 32.71 30.315 32.75 30.316-12.01 10.92c-6.6 6-21.17 19.41-32.4 29.82l-20.42 18.9h-47.13l22.69-21.08 22.69-21.11h-37.82l-37.82-0.04v-35.884h75.5c-15.57-14.143-31.69-28.914-45.77-42.223z" fill="#085"/>
  <path d="m120.39 174.54c-0.18038-0.0429-1.4448-0.11055-2.8098-0.15068-1.365-0.0401-2.5062-0.11252-2.536-0.16069-0.0298-0.0482-0.5399-0.0877-1.1335-0.0877-0.76805 0-1.0912-0.0354-1.1203-0.12271-0.0267-0.0804-0.32965-0.13511-0.87813-0.15856-0.46047-0.0197-0.87973-0.0763-0.93167-0.12577-0.052-0.0495-0.48547-0.0899-0.96339-0.0899-0.47793 0-0.89661-0.0446-0.93041-0.0994-0.0338-0.0546-0.45396-0.0994-0.93371-0.0994-0.47976 0-0.89763-0.0253-0.92862-0.0563-0.0311-0.0309-0.41972-0.0645-0.86382-0.0745-0.80154-0.0181-0.81032-0.0212-1.198-0.41587-0.21479-0.2187-0.39273-0.45357-0.3954-0.52191-2e-3 -0.0877-0.21956-0.12426-0.7339-0.12426-0.40096 0-0.75975-0.0307-0.79732-0.0682-0.0376-0.0376-0.14568-0.075-0.24024-0.0833-0.0945-8e-3 -0.56321-0.0486-1.0414-0.0896-0.47822-0.0411-0.89466-0.11547-0.92544-0.16526-0.0307-0.0497-0.25196-0.0905-0.49155-0.0905s-0.45962-0.0387-0.48895-0.0863c-0.0294-0.0475-0.52559-0.10736-1.1028-0.13297-0.87389-0.0388-1.0982-0.0827-1.3403-0.26166-0.15994-0.11817-0.33733-0.21499-0.39422-0.21499-0.05685 0-0.10338-0.0396-0.10338-0.0877 0-0.0483-0.19013-0.0863-0.4225-0.0845-0.8037 6e-3 -2.361-0.14498-2.4165-0.23476-0.03064-0.0497-0.16226-0.0901-0.2925-0.0901-0.13024 0-0.26079-0.0387-0.29013-0.0863-0.02937-0.0475-0.2762-0.11583-0.54855-0.15199-0.27236-0.036-0.52206-0.10908-0.55486-0.16223-0.03274-0.0531-0.16622-0.0965-0.29646-0.0965-0.13023 0-0.26445-0.0446-0.29824-0.0994-0.03379-0.0546-0.18554-0.0994-0.33724-0.0994-0.15167 0-0.30214-0.0264-0.33433-0.0585-0.03222-0.0322-0.28661-0.0709-0.56536-0.0858-0.29607-0.016-0.58158-0.095-0.6866-0.18999-0.09886-0.0895-0.27689-0.16268-0.39561-0.16268-0.11871 0-0.21584-0.0446-0.21584-0.0994 0-0.0632-0.82134-0.10012-2.2617-0.10117-1.4807-6.6e-4 -2.5877-0.052-3.2061-0.14734-0.51943-0.08-1.445-0.14636-2.0569-0.14734-0.63241-6.5e-4 -1.139-0.0446-1.174-0.10117-0.03379-0.0547-0.17064-0.0994-0.3041-0.0994s-0.24265-0.0496-0.24265-0.11006c0-0.0605-0.06706-0.0843-0.14912-0.0527-0.08201 0.0315-0.14912 0.0139-0.14912-0.0391s-0.08949-0.0963-0.19882-0.0963c-0.10936 0-0.19884-0.0446-0.19884-0.0994 0-0.0547-0.06338-0.0994-0.14082-0.0994-0.07748 0-0.1595-0.056-0.18231-0.12426-0.03137-0.0942-0.54908-0.12427-2.1376-0.12427-2.037 0-2.1029-6e-3 -2.3342-0.22367-0.13095-0.12302-0.33587-0.22368-0.45538-0.22368-0.1195 0-0.21726-0.0437-0.21726-0.0969 0-0.0549-0.13091-0.0708-0.30254-0.0363-0.23029 0.046-0.35829 7e-3 -0.53606-0.15889-0.17698-0.16627-0.24814-0.18753-0.29393-0.0878-0.04727 0.10306-0.07296 0.10454-0.11841 6e-3 -0.0319-0.0682-0.12611-0.12427-0.20938-0.12427-0.08328 0-0.23934-0.11178-0.34687-0.24851-0.10752-0.13671-0.28172-0.24854-0.3871-0.24854-0.12632 0-0.19162-0.0688-0.19162-0.20195 0-0.11103-0.06706-0.2277-0.14911-0.25917-0.08201-0.0315-0.14912-0.13203-0.14912-0.22346 0-0.0914-0.09064-0.23158-0.20146-0.31144-0.11227-0.081-0.22794-0.31071-0.26124-0.51901-0.03285-0.20559-0.09875-0.37381-0.14647-0.37381-0.04769 0-0.08675-0.22103-0.08675-0.49119 0-0.27015-0.04474-0.51884-0.09938-0.55263-0.05474-0.0337-0.09938-0.43576-0.09938-0.89328v-0.83187l-0.3135-0.1564c-0.17242-0.086-0.39611-0.15639-0.49706-0.15639-0.10096 0-0.18356-0.0386-0.18356-0.0858 0-0.11092-1.0971-0.23376-2.243-0.25102-1.059-0.0158-1.052-0.0123-2.232-1.1754-0.46556-0.45895-0.92512-0.86461-1.0212-0.9015-0.09612-0.0369-0.20465-0.14634-0.24119-0.24327-0.03653-0.0969-0.25366-0.36432-0.48243-0.59421-0.22879-0.22989-0.4444-0.47593-0.47914-0.54676-0.03474-0.0709-0.14888-0.263-0.25364-0.42701-0.10475-0.16404-0.19373-0.39889-0.19773-0.52192-0.0042-0.12301-0.05201-0.22366-0.10668-0.22366-0.05464 0-0.09938-0.14763-0.09938-0.32806s-0.04811-0.37619-0.10696-0.43503c-0.16752-0.16751-0.23098-5.3812-0.10264-8.4325 0.12037-2.8619 0.28827-4.2214 0.66873-5.4152 0.27535-0.86392 0.29704-1.4646 0.07548-2.0904-0.18689-0.5278-0.1251-2.2942 0.11672-3.3369 0.07938-0.34229 0.12006-0.68561 0.09043-0.76293-0.02969-0.0773-0.07233-1.2108-0.09475-2.5187-0.05253-3.0698-0.14384-4.1264-0.37643-4.3588-0.21583-0.21561-0.44453-0.73677-0.61419-1.3994-0.28014-1.0943-0.54332-8.0469-0.57198-15.111-0.02306-5.6956 0.21763-8.2958 0.91122-9.8418 0.32177-0.71717 0.38141-0.86565 0.45908-1.1432 0.03832-0.1367 0.20155-0.53931 0.36289-0.89471 0.4163-0.91707 0.52961-1.1956 0.64712-1.5906 0.05696-0.19137 0.22299-0.75055 0.36903-1.2426 0.14604-0.49208 0.38092-1.1631 0.52198-1.4911 0.14103-0.32806 0.2903-0.68594 0.33171-0.7953 0.21977-0.5805 0.64068-1.3833 0.8651-1.65 0.14014-0.16655 0.37117-0.47378 0.51334-0.68272 0.14221-0.20893 0.47795-0.61936 0.74608-0.91209 0.26814-0.29272 0.54402-0.66657 0.61308-0.8308 0.06906-0.1642 0.25254-0.47749 0.40774-0.69621 0.15522-0.2187 0.34771-0.52494 0.42778-0.68053 0.22598-0.43913 1.2268-1.4856 2.2261-2.3277 0.49927-0.4207 0.96622-0.84424 1.0377-0.94116 0.07148-0.09691 0.18568-0.17622 0.25383-0.17622 0.06811 0 0.21102-0.15203 0.31746-0.33781 0.25018-0.43677 1.2853-1.6796 2.2314-2.6794 0.84679-0.89471 2.6728-2.5499 2.8129-2.5499 0.23306 0 1.1393-0.7965 1.6654-1.4637 0.31866-0.40414 0.70516-0.83096 0.85889-0.94847 0.15373-0.11756 0.41414-0.3498 0.57869-0.51619 0.68109-0.68866 1.9434-1.5594 2.5412-1.7528 0.36854-0.11928 1.3116-0.53086 1.6332-0.71273 0.10936-0.06186 0.4225-0.2237 0.69588-0.35964 0.2734-0.13594 0.676-0.38803 0.89471-0.56019 0.49395-0.38881 1.0219-0.63468 1.5602-0.72657 0.44253-0.07551 0.75409-0.43588 0.76872-0.88907 0.0074-0.20228-0.15296-0.5897-0.29614-0.71937-0.03021-0.02742-0.13002-0.21131-0.22184-0.40881-0.0918-0.19752-0.23746-0.41762-0.32365-0.48914-0.08622-0.07157-0.21499-0.26959-0.28626-0.44015-0.07127-0.17055-0.19169-0.37715-0.26764-0.45911-0.19434-0.20975-0.38652-0.5631-0.38703-0.7116-1.89e-4 -0.0691-0.11206-0.34568-0.24852-0.61466-0.13646-0.26897-0.24812-0.52498-0.24812-0.5689 0-0.11707-0.52449-1.2198-0.60848-1.2793-0.03948-0.02779-0.10254-0.1737-0.14024-0.32403-0.03769-0.15032-0.10837-0.29791-0.157-0.32796-0.04864-0.03-0.08843-0.17725-0.08843-0.32711s-0.04085-0.31499-0.09064-0.36693c-0.12285-0.12796-0.16897-0.84998-0.241-3.7727-0.06485-2.633 0.04706-5.3042 0.25011-5.9647 0.06727-0.2187 0.22492-0.5852 0.35043-0.81442 0.12552-0.22924 0.2282-0.50619 0.2282-0.61546 0-0.10932 0.04474-0.22633 0.09938-0.26011 0.05474-0.0337 0.09938-0.12469 0.09938-0.20198 0-0.19824 0.49601-1.2496 0.70198-1.4881 0.09443-0.10932 0.25479-0.3557 0.35625-0.54742 0.40523-0.76592 1.5931-2.3759 2.2609-3.0645 0.38886-0.40094 1.1198-1.0187 1.6243-1.3727 0.50453-0.35408 0.94065-0.68154 0.96917-0.7277 0.02853-0.04611 0.35387-0.23829 0.72299-0.427 0.73622-0.37638 1.411-0.74931 1.5658-0.8655 0.05474-0.04107 0.41815-0.19459 0.80774-0.34129 0.38958-0.1467 1.0106-0.42153 1.3801-0.61073 0.36945-0.18919 0.70933-0.344 0.75528-0.344 0.0459 0 0.342-0.11719 0.6579-0.26046 0.91044-0.4129 1.139-0.49915 1.6678-0.62954 0.2734-0.06739 0.58652-0.15992 0.69588-0.20559 0.94746-0.3958 4.0514-0.6982 6.5549-0.63861 1.8163 0.04329 2.5877 0.17269 3.8337 0.64339 0.41006 0.15492 0.85741 0.31349 0.99411 0.35237 0.13669 0.03886 0.76139 0.41108 1.3882 0.82707 0.62682 0.41601 1.2179 0.80111 1.3136 0.8558 0.0956 0.0546 0.68131 0.44316 1.3015 0.86328 1.0965 0.74276 1.566 1.2203 2.1167 2.1525 0.10222 0.17298 0.23206 0.316 0.28862 0.31782 0.17646 0.0062 0.55019 0.36876 0.55019 0.53454 0 0.08694 0.0336 0.15923 0.0746 0.1607 0.041 0.0024 0.26923 0.18105 0.50716 0.39909 0.23794 0.21805 0.51024 0.4517 0.60509 0.51925 0.28594 0.20364 0.87536 1.0902 1.0409 1.5655 0.0854 0.24539 0.15598 0.69718 0.15676 1.004l2e-3 0.55784 0.69588 0.68075c0.38274 0.3744 0.69589 0.72832 0.69589 0.78645 0 0.05817 0.15703 0.19028 0.34894 0.29363 0.42032 0.22636 0.96831 0.73404 1.4824 1.3733 0.26106 0.32465 0.45362 0.4722 0.61626 0.4722 0.1301 0 0.23656 0.04464 0.23656 0.09936 0 0.0546 0.0679 0.09936 0.15087 0.09936 0.083 0 0.29547 0.15092 0.4722 0.33538 0.48918 0.51054 1.212 1.3554 1.2491 1.4601 0.0182 0.05128 0.0785 0.09321 0.13409 0.09321 0.0555 0 0.25825 0.07464 0.45052 0.16588 0.27634 0.13113 0.38852 0.14154 0.53558 0.04968 0.23727-0.14818 3.4694-0.1638 3.4694-0.01672 0 0.14449 0.47225 0.12211 0.5255-0.02483 0.036-0.09936 0.0871-0.09936 0.25546 0 0.14167 0.08362 0.67035 0.12426 1.6173 0.12426h1.4069l0.4314-0.39764c0.23726-0.21871 0.51156-0.39766 0.60954-0.39766 0.098 0 0.44026-0.19605 0.76063-0.43566 0.32035-0.23962 0.75788-0.49356 0.97227-0.56432 0.2144-0.07083 0.41251-0.16535 0.44023-0.21019 0.0594-0.09604 0.99167-0.53097 1.5713-0.733 0.47927-0.16703 1.7609-0.19139 1.916-0.03653 0.0596 0.0594 0.47237 0.13302 0.91764 0.16353 0.44527 0.0305 0.83323 0.09371 0.86213 0.14049 0.0288 0.04673 0.20646 0.08497 0.39459 0.08497 0.18815 0 0.34209 0.0412 0.34209 0.09149 0 0.05042 0.12955 0.12002 0.28793 0.15477 0.15835 0.0348 0.3666 0.15016 0.46275 0.25643 0.0961 0.10625 0.21607 0.19319 0.26648 0.19319 0.1065 0 0.67282 0.54771 0.67282 0.65071 0 0.03825 0.27455 0.36304 0.61013 0.72176 0.93216 0.99649 1.0389 1.3078 1.3015 3.7969 0.11953 1.1329 0.15368 2.8304 0.082 4.0758-0.0205 0.3554-2e-3 0.91459 0.0387 1.2426 0.0553 0.43283 0.0301 0.80104-0.091 1.3421-0.0918 0.41007-0.20453 0.94689-0.25042 1.1929-0.11499 0.61623-0.17362 0.76915-0.88066 2.2945-0.21977 0.47417-0.98039 1.2936-1.408 1.517-0.13611 0.07107-0.44875 0.24026-0.69481 0.37598-0.88696 0.48925-1.8216 0.58095-3.4794 0.34139-1.6367-0.23651-2.9872-0.69643-4.1753-1.4219-0.71395-0.43594-0.7134-0.43565-1.6397-0.88349l-0.79466-0.38422-1.3912 0.0225c-0.76513 0.01242-1.5104 0.07194-1.6563 0.13238-0.18193 0.07538-1.009 0.09211-2.6357 0.05312-2.9283-0.06997-2.9325-0.06997-5.3032 0.02976-2.0585 0.0867-2.7963 0.24202-3.7088 0.78117-0.20816 0.12301-0.41643 0.22365-0.46282 0.22365-0.0464 0-0.25631 0.08583-0.46651 0.1907-0.21021 0.10489-0.62732 0.26574-0.92693 0.35744-0.29961 0.09174-0.65901 0.24808-0.79865 0.34751-0.13966 0.09949-0.43134 0.21284-0.64821 0.25202-0.21687 0.0391-0.43901 0.10415-0.49369 0.1445-0.0547 0.04033-0.53357 0.13165-1.0642 0.20295-0.74955 0.10071-1.0515 0.10366-1.3536 0.01315-0.48253-0.14456-0.98398-0.15057-1.0301-0.0123-0.0191 0.0573-0.50372 0.1498-1.077 0.20559-1.8778 0.18277-2.0353 0.20465-2.1308 0.29589-0.052 0.04968-0.19733 0.09027-0.32308 0.09027-0.12577 0-0.22864 0.0391-0.22864 0.0867 0 0.04771-0.17895 0.11534-0.39766 0.15029-0.21871 0.03505-0.39764 0.10784-0.39764 0.16182 0 0.0541-0.0671 0.09826-0.14911 0.09826-0.21222 0-0.54676 0.3622-0.54676 0.59197 0 0.19989 0.20755 0.26815 0.9933 0.32662 0.25795 0.0192 0.35608 0.07686 0.38197 0.22464 0.0192 0.10932 0.20125 0.37778 0.40463 0.59648 0.20338 0.21871 0.49886 0.57659 0.65658 0.7953 0.15775 0.2187 0.31155 0.42002 0.34178 0.44735 0.13253 0.11989 0.30349 0.51109 0.30349 0.69454 0 0.11006 0.0447 0.20017 0.0994 0.20017 0.0546 0 0.0994 0.09603 0.0994 0.21351 0 0.13958 0.35452 0.56127 1.0238 1.2178 1.0898 1.069 1.5206 1.6296 1.7992 2.3406 0.0952 0.24289 0.25241 0.55603 0.34948 0.69588 0.21223 0.30578 0.75227 1.2909 1.4472 2.6402 0.28163 0.54676 0.72183 1.3805 0.97822 1.8525 0.25641 0.47216 0.46617 0.92933 0.46617 1.0159 0 0.0867 0.0802 0.30426 0.17834 0.4836 0.0981 0.17936 0.26525 0.59452 0.37148 0.92258 0.10623 0.32806 0.37499 0.88724 0.59723 1.2426 0.60384 0.96561 0.94061 1.9747 0.94061 2.8182 0 0.23248 0.0933 0.82304 0.20731 1.3123 0.11403 0.48934 0.24403 1.091 0.2889 1.3371 0.0449 0.24604 0.15238 0.69725 0.23889 1.0027 0.0865 0.30543 0.20034 0.88699 0.25295 1.2924 0.0525 0.40536 0.14236 0.9607 0.19943 1.2341 0.36597 1.7532 0.42605 2.4979 0.50924 6.3127 0.0471 2.1597 0.12663 4.307 0.1767 4.7717 0.05 0.46475 0.1416 1.4266 0.20334 2.1373 0.0618 0.7108 0.15431 1.7121 0.20567 2.2251 0.13925 1.3908 0.022 8.266-0.16379 9.6048-0.252 1.8158-0.32701 2.5212-0.42281 3.9765-0.0925 1.4058-0.32213 3.2452-0.49632 3.9765-0.44878 1.884-0.53175 2.1879-0.76002 2.7836-0.0419 0.10932-0.13669 0.44487-0.21063 0.74559-0.0739 0.30071-0.17507 0.70334-0.22474 0.8947-0.0497 0.19138-0.13175 0.50868-0.18236 0.70516-0.0829 0.3221-0.75553 1.7488-1.1196 2.375-0.54461 0.93685-1.5616 2.0486-2.3322 2.5495-1.7995 1.1697-2.0452 1.4808-2.0698 2.6214-0.0126 0.58605 0.0183 0.69348 0.33289 1.1545 0.19075 0.27955 0.39601 0.59206 0.45616 0.69447 0.0904 0.1539 0.25405 0.19162 0.94441 0.21769 0.56979 0.0216 0.96138 0.0925 1.2326 0.22412 0.63391 0.30705 1.2405 0.49277 1.6097 0.49277 0.18807 0 0.42186 0.0428 0.51948 0.095 0.0976 0.0522 0.92276 0.12174 1.8336 0.15452 0.91086 0.0327 1.9576 0.12563 2.3261 0.20642 0.36849 0.0807 1.1621 0.16531 1.7635 0.18785 0.98776 0.0371 1.241 0.0895 2.6179 0.54357 0.83842 0.27646 1.6548 0.50264 1.8143 0.50264 0.15941 0 0.28986 0.0446 0.28986 0.0994 0 0.0546 0.24603 0.0994 0.54676 0.0994 0.30072 0 0.54675 0.0368 0.54675 0.0821 0 0.0452 0.12893 0.0632 0.28648 0.0401 0.15755-0.0232 0.31676 7e-3 0.35381 0.0668 0.0371 0.0599 0.19891 0.10895 0.35971 0.10895 0.16082 0 0.29238 0.0446 0.29238 0.0994 0 0.0546 0.0895 0.0994 0.19882 0.0994 0.10934 0 0.19882 0.0508 0.19882 0.11326 0 0.0812 0.1761 0.0905 0.62134 0.0332 0.7548-0.0971 1.5317-0.0917 4.4984 0.0313 2.1167 0.0877 2.3197 0.11228 2.7339 0.33126 0.24605 0.13009 0.47074 0.26744 0.49931 0.30521 0.0286 0.0377 0.27461 0.0967 0.54677 0.13066 0.27215 0.034 0.83033 0.13226 1.2404 0.21819 0.41008 0.0858 0.86916 0.17769 1.0202 0.20389 0.15104 0.0262 0.29905 0.0873 0.32894 0.13562 0.0299 0.0483 0.1397 0.0879 0.24396 0.0879 0.21339 0 0.92416 0.30797 0.97505 0.42251 0.0182 0.041 0.0687 0.0745 0.11202 0.0745 0.0434 0 0.55757 0.26725 1.1426 0.59391s1.0938 0.58569 1.1306 0.57561c0.15459-0.0423 0.88783 0.39193 1.2101 0.71667 0.3623 0.36505 0.89471 1.2831 0.89471 1.5428 0 0.0824 0.0336 0.15018 0.0745 0.15062 0.18537 2e-3 0.3231 0.60382 0.3231 1.4122 0 0.5179-0.0507 0.9658-0.12428 1.0952-0.27193 0.47928-1.019 1.1713-1.5509 1.4366-0.30886 0.15409-0.5765 0.31377-0.59474 0.35487-0.0183 0.0411-0.20838 0.10265-0.4225 0.13697-0.21412 0.0343-0.38931 0.10128-0.38931 0.14897 0 0.0477-0.15394 0.0867-0.34208 0.0867-0.18815 0-0.36972 0.0446-0.40352 0.0994-0.0338 0.0547-0.2351 0.0994-0.44735 0.0994s-0.4095 0.0382-0.43833 0.0849c-0.0287 0.0466-0.39966 0.11104-0.82404 0.14319-0.42438 0.0321-0.78741 0.10575-0.80672 0.16368-0.0219 0.0654-0.43858 0.10539-1.1005 0.10539-0.58595 0-1.1079 0.0398-1.1598 0.0886-0.0519 0.0486-0.85236 0.10809-1.7786 0.13192-1.1664 0.03-1.6963 0.0791-1.7232 0.15984-0.0214 0.0641-0.18053 0.11756-0.35369 0.11879-0.17312 6.5e-4 -0.42662 0.0896-0.56333 0.19661-0.13668 0.10697-0.30443 0.19539-0.37278 0.19661-0.13477 2e-3 -0.1809 0.69808-0.0463 0.69808 0.0428 0 0.16316 0.14539 0.26729 0.32311 0.10412 0.17769 0.37102 0.505 0.59306 0.72735 0.42545 0.42604 0.59303 0.65135 0.74577 1.0027 0.0513 0.11768 0.1433 0.24508 0.20472 0.28304 0.10895 0.0673 0.271 0.40874 0.27784 0.58536 2e-3 0.0485 0.0432 0.11559 0.0917 0.14912 0.0486 0.0335 0.16854 0.23335 0.26671 0.44423 0.21164 0.4546 0.14398 1.2078-0.13046 1.452-0.0944 0.084-0.20379 0.21985-0.24316 0.30187-0.19284 0.40187-0.37667 0.6536-0.76983 1.0542-0.23587 0.24034-0.469 0.43698-0.51807 0.43698-0.0491 0-0.22212 0.11178-0.38456 0.24853-0.16246 0.13668-0.38004 0.24854-0.48355 0.24854-0.10349 0-0.34048 0.0856-0.52664 0.1901-0.18616 0.10454-0.59072 0.22163-0.89905 0.26015-0.3083 0.0385-0.58497 0.10957-0.61482 0.15783-0.0298 0.0482-0.1621 0.0878-0.2939 0.0878-0.13179 0-0.39584 0.0877-0.58675 0.19496-0.23425 0.13156-0.64027 0.21709-1.2488 0.26301-0.4959 0.0374-0.92526 0.10625-0.95413 0.15298-0.0289 0.0467-0.91954 0.085-1.9793 0.085s-1.9518 0.0403-1.9822 0.0896c-0.0304 0.0494-0.32397 0.12076-0.65221 0.1589-0.32827 0.0381-0.62177 0.10958-0.65223 0.1589-0.0673 0.10872-4.5313 0.10117-4.9943-8e-3z" fill="#088550" stroke-width=".099411"/>
 </g>
</svg>
