<?xml version="1.0" encoding="UTF-8" standalone="no"?>
<svg
   xmlns:dc="http://purl.org/dc/elements/1.1/"
   xmlns:cc="http://creativecommons.org/ns#"
   xmlns:rdf="http://www.w3.org/1999/02/22-rdf-syntax-ns#"
   xmlns:svg="http://www.w3.org/2000/svg"
   xmlns="http://www.w3.org/2000/svg"
   xmlns:sodipodi="http://sodipodi.sourceforge.net/DTD/sodipodi-0.dtd"
   xmlns:inkscape="http://www.inkscape.org/namespaces/inkscape"
   width="800"
   height="400"
   viewBox="0 0 400 200"
   version="1.1"
   id="svg8"
   sodipodi:docname="Nootausgang.svg"
   inkscape:version="0.92.2 2405546, 2018-03-11"
   inkscape:export-filename="/home/tilman/Bilder/nootausgang/ISO_7010_E002/Nootausgang.svg.png"
   inkscape:export-xdpi="96"
   inkscape:export-ydpi="96">
  <metadata
     id="metadata14">
    <rdf:RDF>
      <cc:Work
         rdf:about="">
        <dc:format>image/svg+xml</dc:format>
        <dc:type
           rdf:resource="http://purl.org/dc/dcmitype/StillImage" />
      </cc:Work>
    </rdf:RDF>
  </metadata>
  <defs
     id="defs12" />
  <sodipodi:namedview
     pagecolor="#ffffff"
     bordercolor="#666666"
     borderopacity="1"
     objecttolerance="10"
     gridtolerance="10"
     guidetolerance="10"
     inkscape:pageopacity="0"
     inkscape:pageshadow="2"
     inkscape:window-width="3440"
     inkscape:window-height="1440"
     id="namedview10"
     showgrid="false"
     inkscape:zoom="1.5485639"
     inkscape:cx="618.86035"
     inkscape:cy="44.158102"
     inkscape:window-x="0"
     inkscape:window-y="0"
     inkscape:window-maximized="0"
     inkscape:current-layer="g6" />
  <g
     style="fill-rule:nonzero;stroke:none"
     id="g6">
    <rect
       style="fill:#ffffff;fill-rule:nonzero;stroke:none"
       y="0"
       x="0"
       height="200"
       width="400"
       id="rect2" />
    <path
       style="fill:#008855"
       d="m 5,5 v 95 95 H 200 395 V 100 5 H 200 Z m 39.224,13.722 h 59.396 59.4 c 0,163.508 0,0 0,163.508 l -5.22,5.35 -5.22,5.31 c -118.442,-0.63 0,0 -118.442,-0.63 3.212322,-3.90009 6.179397,-6.41037 10.086,-10.09 z m 213.526,21.111 23.5,0.033 23.53,0.033 32.71,30.315 32.75,30.316 -12.01,10.92 c -6.6,6 -21.17,19.41 -32.4,29.82 l -20.42,18.9 h -23.56 -23.57 l 22.69,-21.08 22.69,-21.11 h -37.82 l -37.82,-0.04 V 100 82.056 h 37.75 37.75 C 287.95,67.913 271.83,53.142 257.75,39.833 Z"
       id="path4"
       inkscape:connector-curvature="0"
       sodipodi:nodetypes="ccccccccccccccccccaccccccccccccccccca" />
    <path
       d="m 120.38921,174.53782 c -0.18038,-0.0429 -1.44478,-0.11055 -2.80975,-0.15068 -1.36497,-0.0401 -2.50625,-0.11252 -2.53601,-0.16069 -0.0298,-0.0482 -0.5399,-0.0877 -1.13354,-0.0877 -0.76805,0 -1.09118,-0.0354 -1.1203,-0.12271 -0.0267,-0.0804 -0.32965,-0.13511 -0.87813,-0.15856 -0.46047,-0.0197 -0.87973,-0.0763 -0.93167,-0.12577 -0.052,-0.0495 -0.48547,-0.0899 -0.96339,-0.0899 -0.47793,0 -0.89661,-0.0446 -0.93041,-0.0994 -0.0338,-0.0546 -0.45396,-0.0994 -0.93371,-0.0994 -0.47976,0 -0.89763,-0.0253 -0.92862,-0.0563 -0.0311,-0.0309 -0.41972,-0.0645 -0.86382,-0.0745 -0.80154,-0.0181 -0.81032,-0.0212 -1.19799,-0.41587 -0.21479,-0.2187 -0.39273,-0.45357 -0.3954,-0.52191 -0.002,-0.0877 -0.21956,-0.12426 -0.7339,-0.12426 -0.40096,0 -0.75975,-0.0307 -0.79732,-0.0682 -0.0376,-0.0376 -0.14568,-0.075 -0.24024,-0.0833 -0.0945,-0.008 -0.56321,-0.0486 -1.04142,-0.0896 -0.47822,-0.0411 -0.89466,-0.11547 -0.92544,-0.16526 -0.0307,-0.0497 -0.25196,-0.0905 -0.49155,-0.0905 -0.23959,0 -0.45962,-0.0387 -0.48895,-0.0863 -0.0294,-0.0475 -0.525592,-0.10736 -1.102817,-0.13297 -0.873886,-0.0388 -1.098168,-0.0827 -1.340254,-0.26166 -0.159937,-0.11817 -0.337329,-0.21499 -0.394221,-0.21499 -0.05685,0 -0.103382,-0.0396 -0.103382,-0.0877 0,-0.0483 -0.190131,-0.0863 -0.422499,-0.0845 -0.803697,0.006 -2.361022,-0.14498 -2.416493,-0.23476 -0.03064,-0.0497 -0.162264,-0.0901 -0.292502,-0.0901 -0.130239,0 -0.260793,-0.0387 -0.290134,-0.0863 -0.02937,-0.0475 -0.276195,-0.11583 -0.548547,-0.15199 -0.272363,-0.036 -0.52206,-0.10908 -0.554864,-0.16223 -0.03274,-0.0531 -0.166222,-0.0965 -0.296461,-0.0965 -0.130228,0 -0.264446,-0.0446 -0.29824,-0.0994 -0.03379,-0.0546 -0.18554,-0.0994 -0.337245,-0.0994 -0.151673,0 -0.302135,-0.0264 -0.334329,-0.0585 -0.03222,-0.0322 -0.286607,-0.0709 -0.56536,-0.0858 -0.296071,-0.016 -0.581583,-0.095 -0.686598,-0.18999 -0.09886,-0.0895 -0.276889,-0.16268 -0.395611,-0.16268 -0.11871,0 -0.215839,-0.0446 -0.215839,-0.0994 0,-0.0632 -0.821342,-0.10012 -2.261661,-0.10117 -1.480694,-6.6e-4 -2.587663,-0.052 -3.206083,-0.14734 -0.519428,-0.08 -1.445015,-0.14636 -2.056918,-0.14734 -0.632411,-6.5e-4 -1.139037,-0.0446 -1.173958,-0.10117 -0.03379,-0.0547 -0.170644,-0.0994 -0.304104,-0.0994 -0.13346,0 -0.242653,-0.0496 -0.242653,-0.11006 0,-0.0605 -0.06706,-0.0843 -0.149115,-0.0527 -0.08201,0.0315 -0.149115,0.0139 -0.149115,-0.0391 0,-0.053 -0.08949,-0.0963 -0.198816,-0.0963 -0.109362,0 -0.198837,-0.0446 -0.198837,-0.0994 0,-0.0547 -0.06338,-0.0994 -0.140819,-0.0994 -0.07748,0 -0.159495,-0.056 -0.182309,-0.12426 -0.03137,-0.0942 -0.549084,-0.12427 -2.137581,-0.12427 -2.037,0 -2.102914,-0.006 -2.334219,-0.22367 -0.130954,-0.12302 -0.335866,-0.22368 -0.455377,-0.22368 -0.1195,0 -0.21726,-0.0437 -0.21726,-0.0969 0,-0.0549 -0.130913,-0.0708 -0.302536,-0.0363 -0.230294,0.046 -0.35829,0.007 -0.536061,-0.15889 -0.176982,-0.16627 -0.248139,-0.18753 -0.293934,-0.0878 -0.04727,0.10306 -0.07296,0.10454 -0.118406,0.006 -0.0319,-0.0682 -0.126111,-0.12427 -0.209375,-0.12427 -0.08328,0 -0.239338,-0.11178 -0.346868,-0.24851 -0.107519,-0.13671 -0.281722,-0.24854 -0.387104,-0.24854 -0.126323,0 -0.191616,-0.0688 -0.191616,-0.20195 0,-0.11103 -0.06706,-0.2277 -0.149114,-0.25917 -0.08201,-0.0315 -0.149115,-0.13203 -0.149115,-0.22346 0,-0.0914 -0.09064,-0.23158 -0.201459,-0.31144 -0.112267,-0.081 -0.227935,-0.31071 -0.261245,-0.51901 -0.03285,-0.20559 -0.09875,-0.37381 -0.146473,-0.37381 -0.04769,0 -0.08675,-0.22103 -0.08675,-0.49119 0,-0.27015 -0.04474,-0.51884 -0.09938,-0.55263 -0.05474,-0.0337 -0.09938,-0.43576 -0.09938,-0.89328 v -0.83187 l -0.313505,-0.1564 c -0.172423,-0.086 -0.396106,-0.15639 -0.497056,-0.15639 -0.100961,0 -0.183561,-0.0386 -0.183561,-0.0858 0,-0.11092 -1.097095,-0.23376 -2.242975,-0.25102 -1.059047,-0.0158 -1.052036,-0.0123 -2.232026,-1.17542 -0.465557,-0.45895 -0.925124,-0.86461 -1.021221,-0.9015 -0.09612,-0.0369 -0.204649,-0.14634 -0.24119,-0.24327 -0.03653,-0.0969 -0.253655,-0.36432 -0.482433,-0.59421 -0.228789,-0.22989 -0.444397,-0.47593 -0.479138,-0.54676 -0.03474,-0.0709 -0.148884,-0.263 -0.253645,-0.42701 -0.104751,-0.16404 -0.193731,-0.39889 -0.197732,-0.52192 -0.0042,-0.12301 -0.05201,-0.22366 -0.106677,-0.22366 -0.05464,0 -0.09938,-0.14763 -0.09938,-0.32806 0,-0.18043 -0.04811,-0.37619 -0.106962,-0.43503 -0.167517,-0.16751 -0.230978,-5.38116 -0.102645,-8.43254 0.120374,-2.86188 0.28827,-4.22143 0.668732,-5.41522 0.275352,-0.86392 0.29704,-1.46458 0.07548,-2.09038 -0.186889,-0.5278 -0.125101,-2.29425 0.11672,-3.33691 0.07938,-0.34229 0.120059,-0.68561 0.09043,-0.76293 -0.02969,-0.0773 -0.07233,-1.21075 -0.09475,-2.51868 -0.05253,-3.06982 -0.14384,-4.12638 -0.376429,-4.35879 -0.215829,-0.21561 -0.444534,-0.73677 -0.614188,-1.3994 -0.280143,-1.09431 -0.543315,-8.04691 -0.571982,-15.11056 -0.02306,-5.6956 0.217629,-8.2958 0.911217,-9.84179 0.321769,-0.71717 0.381409,-0.86565 0.459083,-1.14322 0.03832,-0.1367 0.201553,-0.53931 0.36289,-0.89471 0.416298,-0.917069 0.529608,-1.195569 0.647119,-1.590619 0.05696,-0.191374 0.222988,-0.750554 0.369028,-1.242609 0.146041,-0.492077 0.380925,-1.163114 0.521976,-1.491137 0.141029,-0.328055 0.290302,-0.685935 0.331707,-0.795297 0.219767,-0.580502 0.640676,-1.383285 0.865095,-1.650008 0.140145,-0.166551 0.371166,-0.47378 0.513343,-0.682718 0.142208,-0.208926 0.477948,-0.619363 0.746079,-0.912093 0.268141,-0.292717 0.54402,-0.66657 0.613082,-0.830797 0.06906,-0.164202 0.252539,-0.477494 0.407739,-0.696207 0.155221,-0.218703 0.34771,-0.524936 0.427784,-0.680528 0.225977,-0.439127 1.226796,-1.485602 2.22613,-2.327702 0.499267,-0.420703 0.966224,-0.844238 1.037676,-0.941161 0.07148,-0.09691 0.185678,-0.176217 0.253834,-0.176217 0.06811,0 0.211018,-0.15203 0.317464,-0.337813 0.250181,-0.436774 1.285278,-1.679645 2.231405,-2.679394 0.846787,-0.894706 2.672758,-2.549907 2.812945,-2.549907 0.233063,0 1.139301,-0.7965 1.665382,-1.463711 0.318664,-0.40414 0.705158,-0.830957 0.858894,-0.948468 0.153726,-0.117557 0.41414,-0.349799 0.578688,-0.516189 0.681092,-0.68866 1.943419,-1.559385 2.541173,-1.752818 0.368544,-0.119278 1.311597,-0.53086 1.633166,-0.712732 0.109362,-0.06186 0.422499,-0.223695 0.695883,-0.359639 0.273395,-0.135943 0.675996,-0.388032 0.89471,-0.56019 0.49395,-0.388807 1.021916,-0.634685 1.56024,-0.726568 0.442534,-0.07551 0.754091,-0.435879 0.768725,-0.889074 0.0074,-0.202285 -0.152958,-0.589702 -0.296145,-0.719374 -0.03021,-0.02742 -0.130018,-0.211312 -0.221841,-0.408814 -0.0918,-0.197515 -0.237463,-0.417618 -0.323654,-0.489137 -0.08622,-0.07157 -0.214986,-0.269588 -0.286259,-0.440147 -0.07127,-0.170548 -0.191689,-0.377149 -0.267636,-0.459109 -0.194342,-0.20975 -0.386515,-0.563105 -0.387031,-0.711604 -1.89e-4,-0.0691 -0.112057,-0.34568 -0.248517,-0.614665 -0.136461,-0.268972 -0.248118,-0.524983 -0.248118,-0.568897 0,-0.117067 -0.524491,-1.219787 -0.608482,-1.279255 -0.03948,-0.02779 -0.10254,-0.173696 -0.140239,-0.324027 -0.03769,-0.150319 -0.108373,-0.297907 -0.157,-0.327962 -0.04864,-0.03 -0.08843,-0.177248 -0.08843,-0.327112 0,-0.149864 -0.04085,-0.314988 -0.09064,-0.366931 -0.122848,-0.127962 -0.16897,-0.84998 -0.241001,-3.772719 -0.06485,-2.633035 0.04706,-5.30419 0.250107,-5.964662 0.06727,-0.218702 0.224915,-0.585203 0.350426,-0.814419 0.125522,-0.22924 0.228199,-0.506193 0.228199,-0.615464 0,-0.109321 0.04474,-0.226326 0.09938,-0.260107 0.05474,-0.0337 0.09938,-0.124691 0.09938,-0.201977 0,-0.198241 0.496014,-1.249622 0.701978,-1.488061 0.09443,-0.10932 0.254792,-0.355703 0.356248,-0.547425 0.405233,-0.76592 1.593077,-2.375905 2.260925,-3.064537 0.388862,-0.400944 1.119834,-1.018671 1.624302,-1.372714 0.504531,-0.35408 0.940652,-0.681537 0.969172,-0.7277 0.02853,-0.04611 0.353868,-0.238291 0.722992,-0.427 0.736225,-0.376375 1.410957,-0.749307 1.565778,-0.865501 0.05474,-0.04107 0.418151,-0.194588 0.80774,-0.341291 0.389579,-0.146704 1.010609,-0.421529 1.380091,-0.610731 0.369449,-0.189189 0.709326,-0.343996 0.75528,-0.343996 0.0459,0 0.342004,-0.11719 0.657899,-0.260463 0.910438,-0.412897 1.138952,-0.499148 1.667844,-0.629545 0.273395,-0.06739 0.586521,-0.159922 0.695875,-0.205594 0.94746,-0.395803 4.05138,-0.698199 6.55492,-0.638607 1.81627,0.04329 2.58766,0.172686 3.83372,0.643391 0.41006,0.154918 0.85741,0.313487 0.99411,0.352371 0.13669,0.03886 0.76139,0.411076 1.38821,0.827072 0.62682,0.416007 1.21793,0.801112 1.31356,0.855798 0.0956,0.0546 0.68131,0.443158 1.30151,0.863285 1.09646,0.742765 1.56603,1.220256 2.11669,2.152468 0.10222,0.172982 0.23206,0.315996 0.28862,0.317816 0.17646,0.0062 0.55019,0.368762 0.55019,0.534538 0,0.08694 0.0336,0.159234 0.0746,0.160697 0.041,0.0024 0.26923,0.18105 0.50716,0.399088 0.23794,0.21805 0.51024,0.451705 0.60509,0.519253 0.28594,0.203638 0.87536,1.090167 1.04087,1.565532 0.0854,0.245386 0.15598,0.697178 0.15676,1.003988 l 0.002,0.557841 0.69588,0.68075 c 0.38274,0.374395 0.69589,0.728315 0.69589,0.786454 0,0.05817 0.15703,0.190285 0.34894,0.293629 0.42032,0.226363 0.96831,0.734045 1.4824,1.373329 0.26106,0.324653 0.45362,0.472205 0.61626,0.472205 0.1301,0 0.23656,0.04464 0.23656,0.09936 0,0.0546 0.0679,0.09936 0.15087,0.09936 0.083,0 0.29547,0.150921 0.4722,0.335375 0.48918,0.510536 1.21195,1.355376 1.24914,1.460148 0.0182,0.05128 0.0785,0.09321 0.13409,0.09321 0.0555,0 0.25825,0.07464 0.45052,0.165875 0.27634,0.131134 0.38852,0.141538 0.53558,0.04968 0.23727,-0.148178 3.46936,-0.163795 3.46936,-0.01672 0,0.14449 0.47225,0.122109 0.5255,-0.02483 0.036,-0.09936 0.0871,-0.09936 0.25546,0 0.14167,0.08362 0.67035,0.124262 1.61729,0.124262 h 1.4069 l 0.4314,-0.397636 c 0.23726,-0.218714 0.51156,-0.39766 0.60954,-0.39766 0.098,0 0.44026,-0.196051 0.76063,-0.435658 0.32035,-0.23962 0.75788,-0.493565 0.97227,-0.564322 0.2144,-0.07083 0.41251,-0.165346 0.44023,-0.210193 0.0594,-0.09604 0.99167,-0.530972 1.57131,-0.732999 0.47927,-0.167031 1.76094,-0.191391 1.91599,-0.03653 0.0596,0.0594 0.47237,0.133016 0.91764,0.163526 0.44527,0.0305 0.83323,0.09371 0.86213,0.140492 0.0288,0.04673 0.20646,0.08497 0.39459,0.08497 0.18815,0 0.34209,0.0412 0.34209,0.09149 0,0.05042 0.12955,0.120018 0.28793,0.15477 0.15835,0.0348 0.3666,0.150158 0.46275,0.256429 0.0961,0.106246 0.21607,0.193186 0.26648,0.193186 0.1065,0 0.67282,0.547708 0.67282,0.650708 0,0.03825 0.27455,0.363045 0.61013,0.72176 0.93216,0.996488 1.03887,1.307786 1.30152,3.796947 0.11953,1.13291 0.15368,2.8304 0.082,4.07584 -0.0205,0.355396 -0.002,0.91459 0.0387,1.242613 0.0553,0.43283 0.0301,0.801038 -0.091,1.342095 -0.0918,0.410068 -0.20453,0.946893 -0.25042,1.192932 -0.11499,0.616227 -0.17362,0.769152 -0.88066,2.294498 -0.21977,0.474172 -0.98039,1.293644 -1.408,1.516957 -0.13611,0.07107 -0.44875,0.24026 -0.69481,0.375982 -0.88696,0.489249 -1.82155,0.58095 -3.47943,0.34139 -1.63674,-0.236509 -2.98719,-0.696429 -4.17533,-1.421903 -0.71395,-0.435942 -0.7134,-0.435646 -1.63968,-0.883491 l -0.79466,-0.384219 -1.39115,0.0225 c -0.76513,0.01242 -1.51045,0.07194 -1.65629,0.132376 -0.18193,0.07538 -1.00903,0.09211 -2.63574,0.05312 -2.92828,-0.06997 -2.93247,-0.06997 -5.30321,0.02976 -2.05852,0.0867 -2.79634,0.242018 -3.70877,0.781167 -0.20816,0.123007 -0.41643,0.223646 -0.46282,0.223646 -0.0464,0 -0.25631,0.08583 -0.46651,0.190702 -0.21021,0.104888 -0.62732,0.265738 -0.92693,0.357437 -0.29961,0.09174 -0.65901,0.248079 -0.79865,0.347514 -0.13966,0.09949 -0.43134,0.212836 -0.64821,0.252015 -0.21687,0.0391 -0.43901,0.10415 -0.49369,0.144501 -0.0547,0.04033 -0.53357,0.131651 -1.0642,0.202951 -0.74955,0.100709 -1.05151,0.103656 -1.35365,0.01315 -0.48253,-0.144565 -0.98398,-0.150567 -1.03007,-0.0123 -0.0191,0.0573 -0.50372,0.149803 -1.07696,0.205594 -1.87775,0.18277 -2.03528,0.204648 -2.13083,0.295889 -0.052,0.04968 -0.19733,0.09027 -0.32308,0.09027 -0.12577,0 -0.22864,0.0391 -0.22864,0.0867 0,0.04771 -0.17895,0.115345 -0.39766,0.150293 -0.21871,0.03505 -0.39764,0.107845 -0.39764,0.161816 0,0.0541 -0.0671,0.09826 -0.14911,0.09826 -0.21222,0 -0.54676,0.362195 -0.54676,0.591967 0,0.199888 0.20755,0.268149 0.9933,0.32662 0.25795,0.0192 0.35608,0.07686 0.38197,0.224642 0.0192,0.109322 0.20125,0.377777 0.40463,0.59648 0.20338,0.218712 0.49886,0.576593 0.65658,0.795296 0.15775,0.2187 0.31155,0.420015 0.34178,0.447352 0.13253,0.119894 0.30349,0.511089 0.30349,0.694536 0,0.110057 0.0447,0.20017 0.0994,0.20017 0.0546,0 0.0994,0.09603 0.0994,0.21351 0,0.139584 0.35452,0.561273 1.02382,1.217799 1.08977,1.068966 1.52065,1.629597 1.79918,2.340612 0.0952,0.24289 0.25241,0.556034 0.34948,0.695885 0.21223,0.305781 0.75227,1.29094 1.44723,2.640169 0.28163,0.54676 0.72183,1.380461 0.97822,1.852544 0.25641,0.472155 0.46617,0.929333 0.46617,1.015938 0,0.0867 0.0802,0.304255 0.17834,0.483605 0.0981,0.179363 0.26525,0.594524 0.37148,0.922583 0.10623,0.328061 0.37499,0.887241 0.59723,1.242613 0.60384,0.965608 0.94061,1.974659 0.94061,2.818224 0,0.232484 0.0933,0.823037 0.20731,1.312334 0.11403,0.48934 0.24403,1.090978 0.2889,1.337064 0.0449,0.246041 0.15238,0.697251 0.23889,1.002681 0.0865,0.30543 0.20034,0.886989 0.25295,1.292409 0.0525,0.40536 0.14236,0.9607 0.19943,1.23413 0.36597,1.75318 0.42605,2.49789 0.50924,6.31267 0.0471,2.15972 0.12663,4.30703 0.1767,4.77173 0.05,0.46475 0.1416,1.42657 0.20334,2.13734 0.0618,0.7108 0.15431,1.7121 0.20567,2.22514 0.13925,1.39079 0.022,8.26605 -0.16379,9.60483 -0.252,1.81577 -0.32701,2.52124 -0.42281,3.97648 -0.0925,1.40579 -0.32213,3.24517 -0.49632,3.97648 -0.44878,1.88403 -0.53175,2.18788 -0.76002,2.78355 -0.0419,0.10932 -0.13669,0.44487 -0.21063,0.74559 -0.0739,0.30071 -0.17507,0.70334 -0.22474,0.8947 -0.0497,0.19138 -0.13175,0.50868 -0.18236,0.70516 -0.0829,0.3221 -0.75553,1.74876 -1.11964,2.37505 -0.54461,0.93685 -1.5616,2.04856 -2.33225,2.54954 -1.79954,1.16968 -2.04523,1.4808 -2.06984,2.62135 -0.0126,0.58605 0.0183,0.69348 0.33289,1.15448 0.19075,0.27955 0.39601,0.59206 0.45616,0.69447 0.0904,0.1539 0.25405,0.19162 0.94441,0.21769 0.56979,0.0216 0.96138,0.0925 1.23265,0.22412 0.63391,0.30705 1.24052,0.49277 1.60968,0.49277 0.18807,0 0.42186,0.0428 0.51948,0.095 0.0976,0.0522 0.92276,0.12174 1.83361,0.15452 0.91086,0.0327 1.95756,0.12563 2.3261,0.20642 0.36849,0.0807 1.16209,0.16531 1.76351,0.18785 0.98776,0.0371 1.24101,0.0895 2.61791,0.54357 0.83842,0.27646 1.65481,0.50264 1.8143,0.50264 0.15941,0 0.28986,0.0446 0.28986,0.0994 0,0.0546 0.24603,0.0994 0.54676,0.0994 0.30072,0 0.54675,0.0368 0.54675,0.0821 0,0.0452 0.12893,0.0632 0.28648,0.0401 0.15755,-0.0232 0.31676,0.007 0.35381,0.0668 0.0371,0.0599 0.19891,0.10895 0.35971,0.10895 0.16082,0 0.29238,0.0446 0.29238,0.0994 0,0.0546 0.0895,0.0994 0.19882,0.0994 0.10934,0 0.19882,0.0508 0.19882,0.11326 0,0.0812 0.1761,0.0905 0.62134,0.0332 0.7548,-0.0971 1.53171,-0.0917 4.49837,0.0313 2.11667,0.0877 2.3197,0.11228 2.73386,0.33126 0.24605,0.13009 0.47074,0.26744 0.49931,0.30521 0.0286,0.0377 0.27461,0.0967 0.54677,0.13066 0.27215,0.034 0.83033,0.13226 1.24039,0.21819 0.41008,0.0858 0.86916,0.17769 1.02019,0.20389 0.15104,0.0262 0.29905,0.0873 0.32894,0.13562 0.0299,0.0483 0.1397,0.0879 0.24396,0.0879 0.21339,0 0.92416,0.30797 0.97505,0.42251 0.0182,0.041 0.0687,0.0745 0.11202,0.0745 0.0434,0 0.55757,0.26725 1.14262,0.59391 0.58505,0.32666 1.09381,0.58569 1.13061,0.57561 0.15459,-0.0423 0.88783,0.39193 1.21014,0.71667 0.3623,0.36505 0.89471,1.28307 0.89471,1.54278 0,0.0824 0.0336,0.15018 0.0745,0.15062 0.18537,0.002 0.3231,0.60382 0.3231,1.41218 0,0.5179 -0.0507,0.9658 -0.12428,1.09525 -0.27193,0.47928 -1.01901,1.17131 -1.55089,1.43665 -0.30886,0.15409 -0.5765,0.31377 -0.59474,0.35487 -0.0183,0.0411 -0.20838,0.10265 -0.4225,0.13697 -0.21412,0.0343 -0.38931,0.10128 -0.38931,0.14897 0,0.0477 -0.15394,0.0867 -0.34208,0.0867 -0.18815,0 -0.36972,0.0446 -0.40352,0.0994 -0.0338,0.0547 -0.2351,0.0994 -0.44735,0.0994 -0.21225,0 -0.4095,0.0382 -0.43833,0.0849 -0.0287,0.0466 -0.39966,0.11104 -0.82404,0.14319 -0.42438,0.0321 -0.78741,0.10575 -0.80672,0.16368 -0.0219,0.0654 -0.43858,0.10539 -1.10048,0.10539 -0.58595,0 -1.10788,0.0398 -1.15981,0.0886 -0.0519,0.0486 -0.85236,0.10809 -1.77863,0.13192 -1.16638,0.03 -1.69626,0.0791 -1.72319,0.15984 -0.0214,0.0641 -0.18053,0.11756 -0.35369,0.11879 -0.17312,6.5e-4 -0.42662,0.0896 -0.56333,0.19661 -0.13668,0.10697 -0.30443,0.19539 -0.37278,0.19661 -0.13477,0.002 -0.1809,0.69808 -0.0463,0.69808 0.0428,0 0.16316,0.14539 0.26729,0.32311 0.10412,0.17769 0.37102,0.505 0.59306,0.72735 0.42545,0.42604 0.59303,0.65135 0.74577,1.00269 0.0513,0.11768 0.1433,0.24508 0.20472,0.28304 0.10895,0.0673 0.271,0.40874 0.27784,0.58536 0.002,0.0485 0.0432,0.11559 0.0917,0.14912 0.0486,0.0335 0.16854,0.23335 0.26671,0.44423 0.21164,0.4546 0.14398,1.20781 -0.13046,1.45202 -0.0944,0.084 -0.20379,0.21985 -0.24316,0.30187 -0.19284,0.40187 -0.37667,0.6536 -0.76983,1.05418 -0.23587,0.24034 -0.469,0.43698 -0.51807,0.43698 -0.0491,0 -0.22212,0.11178 -0.38456,0.24853 -0.16246,0.13668 -0.38004,0.24854 -0.48355,0.24854 -0.10349,0 -0.34048,0.0856 -0.52664,0.1901 -0.18616,0.10454 -0.59072,0.22163 -0.89905,0.26015 -0.3083,0.0385 -0.58497,0.10957 -0.61482,0.15783 -0.0298,0.0482 -0.1621,0.0878 -0.2939,0.0878 -0.13179,0 -0.39584,0.0877 -0.58675,0.19496 -0.23425,0.13156 -0.64027,0.21709 -1.24876,0.26301 -0.4959,0.0374 -0.92526,0.10625 -0.95413,0.15298 -0.0289,0.0467 -0.91954,0.085 -1.97932,0.085 -1.05978,0 -1.95178,0.0403 -1.98216,0.0896 -0.0304,0.0494 -0.32397,0.12076 -0.65221,0.1589 -0.32827,0.0381 -0.62177,0.10958 -0.65223,0.1589 -0.0673,0.10872 -4.53132,0.10117 -4.99431,-0.008 z"
       id="path8"
       inkscape:connector-curvature="0"
       style="fill:#088550;stroke-width:0.09941144" />
    <path
       d="m 119.7387,177.14478 c -0.18447,-0.0216 -1.39448,-0.39449 -2.68911,-0.8293 -1.29451,-0.43488 -2.39078,-0.76084 -2.43592,-0.72466 -0.0453,0.0362 -0.53772,-0.10254 -1.09449,-0.30855 -0.72032,-0.26648 -1.03608,-0.34435 -1.09458,-0.2701 -0.0538,0.0685 -0.35748,0.0161 -0.88025,-0.15155 -0.43891,-0.14074 -0.85239,-0.2314 -0.91877,-0.2017 -0.0664,0.0299 -0.48742,-0.0817 -0.93566,-0.24744 -0.44826,-0.16578 -0.85686,-0.26795 -0.9081,-0.22687 -0.0512,0.041 -0.46127,-0.0616 -0.91123,-0.22797 -0.44993,-0.1665 -0.8509,-0.28699 -0.89107,-0.26778 -0.0401,0.0195 -0.41674,-0.0831 -0.83678,-0.22769 -0.75824,-0.2606 -0.76754,-0.26076 -1.27226,-0.0137 -0.27962,0.13685 -0.53049,0.30205 -0.55743,0.36717 -0.0341,0.0837 -0.25034,0.0439 -0.73273,-0.13455 -0.37604,-0.13924 -0.72355,-0.23387 -0.77218,-0.21073 -0.0485,0.0238 -0.16347,0.022 -0.25509,-0.002 -0.0918,-0.0243 -0.54563,-0.14844 -1.00878,-0.27475 -0.46318,-0.12633 -0.88039,-0.19874 -0.92702,-0.16142 -0.0466,0.0373 -0.26866,1e-4 -0.49337,-0.0832 -0.224708,-0.0832 -0.444927,-0.12212 -0.489397,-0.0864 -0.04453,0.0359 -0.531292,-0.0791 -1.08185,-0.25413 -0.833501,-0.26561 -1.059469,-0.30123 -1.350581,-0.21208 -0.192226,0.0587 -0.393253,0.0907 -0.446597,0.071 -0.05327,-0.02 -0.111183,0.002 -0.128375,0.0489 -0.01727,0.0466 -0.209165,0.0174 -0.426384,-0.0654 -0.751637,-0.28463 -2.266093,-0.6791 -2.35021,-0.61159 -0.04643,0.0375 -0.184298,0.0313 -0.306525,-0.0148 -0.122132,-0.0453 -0.258456,-0.053 -0.302988,-0.0172 -0.04453,0.0359 -0.300461,0.0156 -0.568782,-0.0439 -0.268309,-0.0596 -0.528607,-0.0758 -0.578383,-0.0358 -0.0498,0.0399 -0.190499,0.0352 -0.312568,-0.008 -0.122143,-0.0453 -0.264004,-0.0485 -0.315253,-0.007 -0.05116,0.0411 -0.209565,0.0318 -0.351815,-0.0209 -0.142272,-0.0527 -0.292808,-0.0793 -0.334424,-0.0599 -0.04179,0.0199 -0.29424,-0.03 -0.560928,-0.11326 -0.283385,-0.0872 -0.579372,-0.11005 -0.711896,-0.0542 -0.124722,0.0521 -0.317905,0.061 -0.429194,0.0199 -0.111331,-0.0411 -0.218408,-0.0319 -0.237958,0.0212 -0.02263,0.0611 -0.806108,-0.18822 -2.157269,-0.68693 -1.388944,-0.51315 -2.445496,-0.8476 -3.059494,-0.97004 -0.515796,-0.10285 -1.407631,-0.35995 -1.981782,-0.57132 -0.593353,-0.21881 -1.08423,-0.35207 -1.137205,-0.30955 -0.05127,0.0413 -0.1957,0.0365 -0.320738,-0.009 -0.125164,-0.0463 -0.245328,-0.0359 -0.266899,0.0227 -0.02169,0.0585 -0.09307,0.0582 -0.158727,2.8e-4 -0.06569,-0.0589 -0.134902,-0.0652 -0.153799,-0.0142 -0.01895,0.0511 -0.118342,0.0621 -0.220903,0.024 -0.102541,-0.038 -0.202364,-0.0266 -0.22202,0.0271 -0.01958,0.0528 -0.09496,0.074 -0.167475,0.0476 -0.07264,-0.0268 -0.16958,-3.3e-4 -0.215292,0.0574 -0.06317,0.0802 -0.55937,-0.0705 -2.049306,-0.62161 -1.910457,-0.7068 -1.974402,-0.72389 -2.269168,-0.59378 -0.166791,0.0734 -0.394832,0.10012 -0.507037,0.0582 -0.112088,-0.0415 -0.219324,-0.0337 -0.238389,0.0188 -0.01969,0.053 -0.148094,0.0226 -0.296745,-0.0697 -0.199575,-0.12434 -0.333487,-0.13129 -0.559612,-0.0318 -0.22542,0.0994 -0.299799,0.0951 -0.307052,-0.0175 -0.0074,-0.11596 -0.03106,-0.12639 -0.10891,-0.0469 -0.05422,0.055 -0.162706,0.0764 -0.240916,0.0467 -0.07812,-0.0288 -0.264436,0.0249 -0.414161,0.11978 -0.149704,0.0946 -0.353068,0.14243 -0.451945,0.10574 -0.118458,-0.0438 -0.204269,0 -0.251897,0.12867 -0.03969,0.10735 -0.144345,0.19677 -0.232515,0.19873 -0.08822,0.002 -0.187067,0.0757 -0.219714,0.16424 -0.03264,0.0884 -0.167833,0.19234 -0.300303,0.23108 -0.134081,0.0398 -0.324844,0.22116 -0.430553,0.41088 -0.10433,0.18729 -0.226293,0.32698 -0.271026,0.31046 -0.04474,-0.0162 -0.160326,0.18348 -0.256908,0.44457 -0.09654,0.26107 -0.22742,0.48587 -0.290807,0.49955 -0.06338,0.0129 -0.249034,0.3866 -0.412603,0.82872 l -0.297408,0.8039 -0.349942,0.0424 c -0.192447,0.0232 -0.427384,0.0142 -0.522112,-0.0211 -0.09464,-0.035 -0.185941,-0.0265 -0.202817,0.0196 -0.03958,0.1071 -1.112412,-0.15531 -2.19341,-0.53569 -0.998934,-0.35213 -0.991091,-0.35315 -2.513632,0.36143 -0.600733,0.28197 -1.176758,0.51453 -1.280119,0.51685 -0.103277,0.002 -0.244254,0.0703 -0.313179,0.15142 -0.06896,0.0808 -0.368144,0.26403 -0.6649,0.40679 -0.296745,0.14283 -0.586931,0.30572 -0.644855,0.36214 -0.0579,0.0563 -0.233652,0.2025 -0.390547,0.32465 -0.156863,0.12223 -0.324296,0.31825 -0.372018,0.43573 -0.04758,0.11756 -0.128723,0.19813 -0.180024,0.17915 -0.05127,-0.0185 -0.145988,0.1082 -0.210513,0.28252 -0.06453,0.17435 -0.179645,0.34685 -0.255834,0.38328 -0.216998,0.10381 -2.14054,5.11998 -3.111017,8.11332 -0.91028,2.8074 -1.238935,4.1795 -1.308776,5.46503 -0.05064,0.93041 -0.648654,3.25392 -1.080143,3.78183 51.240724,1.5999 57.192804,1.53516 79.052454,0.51592 0.002,-0.0694 -0.12737,-0.17623 -0.28926,-0.23747 -0.16215,-0.0607 -0.36807,-0.23466 -0.45806,-0.38545 -0.09,-0.15076 -0.21565,-0.29448 -0.27931,-0.31937 -0.12557,-0.0491 0.0799,-0.73737 0.2061,-0.69069 0.0401,0.0154 0.205,-0.0838 0.3662,-0.21948 0.16122,-0.1356 0.5285,-0.35928 0.81627,-0.49712 0.55131,-0.26409 0.78903,-0.42369 1.05789,-0.71019 0.0901,-0.0959 0.22202,-0.18714 0.2932,-0.20249 0.12638,-0.0265 0.40031,-0.30096 0.46988,-0.46927 0.0197,-0.0461 0.0819,-0.0968 0.13933,-0.11214 0.0575,-0.0159 0.2415,-0.16702 0.40897,-0.33677 0.36101,-0.36587 0.56684,-1.11721 0.39678,-1.44846 -0.0585,-0.114 -0.11252,-0.28319 -0.12014,-0.37609 -0.0373,-0.45528 -0.11953,-0.76235 -0.34511,-1.2859 -0.13534,-0.31407 -0.28364,-0.58496 -0.32965,-0.602 -0.046,-0.0164 -0.16837,-0.18513 -0.27183,-0.37363 -0.10338,-0.18844 -0.26758,-0.37203 -0.36463,-0.40795 -0.0972,-0.0359 -0.28876,-0.20081 -0.42597,-0.36646 -0.13725,-0.16561 -0.4748,-0.41912 -0.75018,-0.56333 -0.2754,-0.14422 -0.50949,-0.30884 -0.52022,-0.36586 -0.0105,-0.0571 -0.12065,-0.14115 -0.24424,-0.18685 -0.12371,-0.0458 -0.33988,-0.22212 -0.48062,-0.39198 -0.17261,-0.20843 -0.52286,-0.43194 -1.07713,-0.68748 -0.45175,-0.20816 -0.82982,-0.4237 -0.84016,-0.47889 -0.0105,-0.0555 -0.83204,-0.40117 -1.82598,-0.76888 -0.9939,-0.36768 -1.81602,-0.71618 -1.82697,-0.77438 -0.011,-0.058 -0.26067,-0.22908 -0.55488,-0.37986 -0.29425,-0.15064 -0.54396,-0.32161 -0.55489,-0.37986 -0.0246,-0.12828 -4.21369,-1.67006 -4.68701,-1.72478 z"
       id="path38"
       inkscape:connector-curvature="0"
       style="fill:#088550;stroke-width:0.10091043"
       sodipodi:nodetypes="cccccccccccccccccccccccccccccccccccccccccccccccccccccccccccccccccccccccccccccccccccccccccccccccccccccccccccccccccccccccc" />
  </g>
</svg>
